<svg width="640" height="160" viewBox="0 0 640 160" fill="none" xmlns="http://www.w3.org/2000/svg">
  <rect x="0" y="20" width="120" height="120" rx="28" fill="#80c314"/>
  <defs>
    <linearGradient id="ws" x1="0" y1="20" x2="120" y2="140" gradientUnits="userSpaceOnUse">
      <stop stop-color="white" stop-opacity="0.2"/>
      <stop offset="1" stop-color="white" stop-opacity="0"/>
    </linearGradient>
  </defs>
  <rect x="0" y="20" width="120" height="120" rx="28" fill="url(#ws)"/>
  <ellipse cx="88" cy="32" rx="36" ry="36" fill="#8fd120" opacity="0.45"/>
  <ellipse cx="28" cy="136" rx="26" ry="26" fill="#6aaa0e" opacity="0.32"/>
  <rect x="25" y="65" width="70" height="55" rx="11" fill="white"/>
  <path d="M40 65 C40 47 90 47 90 65" stroke="white" stroke-width="7" stroke-linecap="round" fill="none"/>
  <path d="M40 65 C40 47 90 47 90 65" stroke="#5a9400" stroke-width="5" stroke-linecap="round" fill="none" opacity="0.4"/>
  <path d="M38 88 L52 103 L84 72" stroke="#80c314" stroke-width="7" stroke-linecap="round" stroke-linejoin="round"/>
  <path d="M82 34 L72 50 H79 L69 68 L90 50 H83 Z" fill="#ffe033" stroke="#f0b800" stroke-width="2" stroke-linejoin="round"/>
  <text x="148" y="82" font-family="'Arial Black',Arial,sans-serif" font-size="58" font-weight="900" fill="#80c314" letter-spacing="-2">Quick</text>
  <text x="148" y="144" font-family="'Arial Black',Arial,sans-serif" font-size="58" font-weight="900" fill="#2d5a00" letter-spacing="-2">Bihar</text>
  <line x1="430" y1="28" x2="430" y2="132" stroke="#c8e878" stroke-width="2"/>
  <text x="448" y="64" font-family="Arial,sans-serif" font-size="22" font-weight="800" fill="#80c314" letter-spacing="2">FAST DELIVERY</text>
  <text x="448" y="96" font-family="Arial,sans-serif" font-size="20" font-weight="600" fill="#666" letter-spacing="1">Bihar's Own</text>
  <text x="448" y="122" font-family="Arial,sans-serif" font-size="16" font-weight="500" fill="#aaa" letter-spacing="0.5">बिहार का अपना स्टोर</text>
</svg>
